# xmcd
#
# Track frame offsets: 
#        150
#        24372
#        32360
#        43442
#        56205
#        75700
#        93397
#        110357
#        120095
#        131485
#        145872
#        164580
#        176397
#        186717
#        197855
#        207442
#        216507
#        230570
#        234205
#        240542
#        258380
#        274545
#        281182
#        293550
#
# Disc length: 4181 seconds
#
# Revision: 0
# Processed by: cddbd v1.5.2PL0 Copyright (c) Steve Scherf et al.
# Submitted via: ExactAudioCopy v0.95a5
#
DISCID=64105318
DTITLE=Hanno Mueller-Brachmann_ Ulrich Eisenlohr - "Die Winterreise" D
DTITLE=911
DYEAR=1997
DGENRE=Classical
TTITLE0=GuteNacht
TTITLE1=Die Wetterfahne
TTITLE2=Gefrorne Tränen
TTITLE3=Erstarrung
TTITLE4=Der Lindenbaum
TTITLE5=Wasserflut
TTITLE6=Auf dem Flusse
TTITLE7=Rückblick
TTITLE8=Irrlicht
TTITLE9=Rast
TTITLE10=Frühlingstraum
TTITLE11=Einsamkeit
TTITLE12=Die Post
TTITLE13=Der greise Kopf
TTITLE14=Die Krahe
TTITLE15=Letzte Hoffnung
TTITLE16=Im Dorfe
TTITLE17=Der stürmische Morgen
TTITLE18=Täuschung
TTITLE19=Der Wegweiser
TTITLE20=DasWirtshaus
TTITLE21=Mut
TTITLE22=Die Nebensonnen
TTITLE23=Der Leiermann
EXTD=
EXTT0=
EXTT1=
EXTT2=
EXTT3=
EXTT4=
EXTT5=
EXTT6=
EXTT7=
EXTT8=
EXTT9=
EXTT10=
EXTT11=
EXTT12=
EXTT13=
EXTT14=
EXTT15=
EXTT16=
EXTT17=
EXTT18=
EXTT19=
EXTT20=
EXTT21=
EXTT22=
EXTT23=
PLAYORDER=
